# This file uses centimeters as units for non-parametric coordinates.

mtllib mesh_ljuskrona_ljus.mtl
g default
v -179.363815 134.677489 -186.187744
v -178.945877 134.677489 -186.338440
v -178.696289 134.677489 -186.706055
v -178.710434 134.677489 -187.150177
v -178.982956 134.677489 -187.501068
v -179.409683 134.677489 -187.624878
v -179.827667 134.677489 -187.474152
v -180.077225 134.677489 -187.106506
v -180.063095 134.677489 -186.662415
v -179.790604 134.677489 -186.311493
v -179.363815 144.322814 -186.187744
v -178.945877 144.322814 -186.338440
v -178.696289 144.322814 -186.706055
v -178.710434 144.322814 -187.150177
v -178.982956 144.322814 -187.501068
v -179.409683 144.322814 -187.624878
v -179.827667 144.322814 -187.474152
v -180.077225 144.322814 -187.106506
v -180.063095 144.322814 -186.662415
v -179.790604 144.322814 -186.311493
v -179.386749 144.322814 -186.906281
v -205.911102 134.677489 -190.019409
v -205.657990 134.677489 -189.654312
v -205.238586 134.677489 -189.507645
v -204.813019 134.677489 -189.635529
v -204.544006 134.677489 -189.989136
v -204.534119 134.677489 -190.433350
v -204.787292 134.677489 -190.798508
v -205.206726 134.677489 -190.945145
v -205.632263 134.677489 -190.817276
v -205.901306 134.677489 -190.463684
v -205.911102 144.322814 -190.019409
v -205.657990 144.322814 -189.654312
v -205.238586 144.322814 -189.507645
v -204.813019 144.322814 -189.635529
v -204.544006 144.322814 -189.989136
v -204.534119 144.322814 -190.433350
v -204.787292 144.322814 -190.798508
v -205.206726 144.322814 -190.945145
v -205.632263 144.322814 -190.817276
v -205.901306 144.322814 -190.463684
v -205.222626 144.322814 -190.226410
v -210.637802 134.677489 -213.391174
v -210.865814 134.677489 -213.009888
v -210.826187 134.677489 -212.567322
v -210.533997 134.677489 -212.232574
v -210.100845 134.677489 -212.133575
v -209.692200 134.677489 -212.308014
v -209.464172 134.677489 -212.689362
v -209.503830 134.677489 -213.131927
v -209.796005 134.677489 -213.466675
v -210.229141 134.677489 -213.565704
v -210.637802 144.322814 -213.391174
v -210.865814 144.322814 -213.009888
v -210.826187 144.322814 -212.567322
v -210.533997 144.322814 -212.232574
v -210.100845 144.322814 -212.133575
v -209.692200 144.322814 -212.308014
v -209.464172 144.322814 -212.689362
v -209.503830 144.322814 -213.131927
v -209.796005 144.322814 -213.466675
v -210.229141 144.322814 -213.565704
v -210.164993 144.322814 -212.849609
v -185.853622 134.677489 -226.955276
v -186.269058 134.677489 -227.112701
v -186.697754 134.677489 -226.995880
v -186.975922 134.677489 -226.649399
v -186.997223 134.677489 -226.205582
v -186.753647 134.677489 -225.833969
v -186.338165 134.677489 -225.676544
v -185.909454 134.677489 -225.793381
v -185.631287 134.677489 -226.139877
v -185.609955 134.677489 -226.583664
v -185.853622 144.322814 -226.955276
v -186.269058 144.322814 -227.112701
v -186.697754 144.322814 -226.995880
v -186.975922 144.322814 -226.649399
v -186.997223 144.322814 -226.205582
v -186.753647 144.322814 -225.833969
v -186.338165 144.322814 -225.676544
v -185.909454 144.322814 -225.793381
v -185.631287 144.322814 -226.139877
v -185.609955 144.322814 -226.583664
v -186.303619 144.322814 -226.394608
v -168.754150 134.677489 -210.538147
v -168.785675 134.677489 -210.981293
v -169.071686 134.677489 -211.321335
v -169.502930 134.677489 -211.428345
v -169.914673 134.677489 -211.261353
v -170.149719 134.677489 -210.884277
v -170.118164 134.677489 -210.441071
v -169.832123 134.677489 -210.101044
v -169.400879 134.677489 -209.994034
v -168.989136 134.677489 -210.160980
v -168.754150 144.322814 -210.538147
v -168.785675 144.322814 -210.981293
v -169.071686 144.322814 -211.321335
v -169.502930 144.322814 -211.428345
v -169.914673 144.322814 -211.261353
v -170.149719 144.322814 -210.884277
v -170.118164 144.322814 -210.441071
v -169.832123 144.322814 -210.101044
v -169.400879 144.322814 -209.994034
v -168.989136 144.322814 -210.160980
v -169.451935 144.322814 -210.711197
vt 0.391206 0.777529
vt 0.398243 0.777383
vt 0.400165 0.921402
vt 0.394621 0.922813
vt 0.405338 0.777295
vt 0.405586 0.920665
vt 0.412464 0.777295
vt 0.410927 0.920504
vt 0.419599 0.777395
vt 0.416250 0.920877
vt 0.426720 0.777595
vt 0.421616 0.921806
vt 0.433806 0.777879
vt 0.427069 0.923369
vt 0.440834 0.778217
vt 0.432625 0.925666
vt 0.447778 0.778562
vt 0.438248 0.928841
vt 0.377437 0.777795
vt 0.384258 0.777693
vt 0.388945 0.925027
vt 0.383195 0.928230
vt 0.410746 0.931896
vt 0.391206 0.777529
vt 0.398243 0.777383
vt 0.400165 0.921402
vt 0.394621 0.922813
vt 0.405338 0.777295
vt 0.405586 0.920665
vt 0.412464 0.777295
vt 0.410927 0.920504
vt 0.419599 0.777395
vt 0.416250 0.920877
vt 0.426720 0.777595
vt 0.421616 0.921806
vt 0.433806 0.777879
vt 0.427069 0.923369
vt 0.440834 0.778217
vt 0.432625 0.925666
vt 0.447778 0.778562
vt 0.438248 0.928841
vt 0.377437 0.777795
vt 0.384258 0.777693
vt 0.388945 0.925027
vt 0.383195 0.928230
vt 0.410746 0.931896
vt 0.391206 0.777529
vt 0.398243 0.777383
vt 0.400165 0.921402
vt 0.394621 0.922813
vt 0.405338 0.777295
vt 0.405586 0.920665
vt 0.412464 0.777295
vt 0.410927 0.920504
vt 0.419599 0.777395
vt 0.416250 0.920877
vt 0.426720 0.777595
vt 0.421616 0.921806
vt 0.433806 0.777879
vt 0.427069 0.923369
vt 0.440834 0.778217
vt 0.432625 0.925666
vt 0.447778 0.778562
vt 0.438248 0.928841
vt 0.377437 0.777795
vt 0.384258 0.777693
vt 0.388945 0.925027
vt 0.383195 0.928230
vt 0.410746 0.931896
vt 0.391206 0.777529
vt 0.398243 0.777383
vt 0.400165 0.921402
vt 0.394621 0.922813
vt 0.405338 0.777295
vt 0.405586 0.920665
vt 0.412464 0.777295
vt 0.410927 0.920504
vt 0.419599 0.777395
vt 0.416250 0.920877
vt 0.426720 0.777595
vt 0.421616 0.921806
vt 0.433806 0.777879
vt 0.427069 0.923369
vt 0.440834 0.778217
vt 0.432625 0.925666
vt 0.447778 0.778562
vt 0.438248 0.928841
vt 0.377437 0.777795
vt 0.384258 0.777693
vt 0.388945 0.925027
vt 0.383195 0.928230
vt 0.410746 0.931896
vt 0.391206 0.777529
vt 0.398243 0.777383
vt 0.400165 0.921402
vt 0.394621 0.922813
vt 0.405338 0.777295
vt 0.405586 0.920665
vt 0.412464 0.777295
vt 0.410927 0.920504
vt 0.419599 0.777395
vt 0.416250 0.920877
vt 0.426720 0.777595
vt 0.421616 0.921806
vt 0.433806 0.777879
vt 0.427069 0.923369
vt 0.440834 0.778217
vt 0.432625 0.925666
vt 0.447778 0.778562
vt 0.438248 0.928841
vt 0.377437 0.777795
vt 0.384258 0.777693
vt 0.388945 0.925027
vt 0.383195 0.928230
vt 0.410746 0.931896
vn 0.031896 0.000000 0.999491
vn 0.613294 0.000000 0.789855
vn 0.613021 0.029801 0.789504
vn 0.031882 0.029801 0.999047
vn 0.960417 0.000000 0.278567
vn 0.959990 0.029800 0.278443
vn 0.940712 0.000000 -0.339206
vn 0.940294 0.029800 -0.339056
vn 0.561669 0.000000 -0.827362
vn 0.561420 0.029805 -0.826994
vn -0.031852 0.000000 -0.999493
vn -0.031837 0.029802 -0.999049
vn -0.613332 0.000000 -0.789825
vn -0.613059 0.029802 -0.789475
vn -0.960422 0.000000 -0.278551
vn -0.959995 0.029803 -0.278427
vn -0.940731 0.000000 0.339153
vn -0.940313 0.029800 0.339003
vn -0.561622 0.000000 0.827394
vn -0.561372 0.029801 0.827027
vn 0.000000 1.000000 -0.000000
vn -0.957662 0.000000 0.287897
vn -0.605574 0.000000 0.795789
vn -0.605305 0.029801 0.795436
vn -0.957236 0.029802 0.287769
vn -0.022237 0.000000 0.999753
vn -0.022227 0.029802 0.999309
vn 0.569714 0.000000 0.821843
vn 0.569461 0.029801 0.821478
vn 0.943984 0.000000 0.329992
vn 0.943564 0.029803 0.329846
vn 0.957672 0.000000 -0.287864
vn 0.957246 0.029800 -0.287736
vn 0.605541 0.000000 -0.795814
vn 0.605272 0.029801 -0.795461
vn 0.022207 0.000000 -0.999753
vn 0.022197 0.029802 -0.999309
vn -0.569684 0.000000 -0.821864
vn -0.569431 0.029801 -0.821499
vn -0.944011 0.000000 -0.329914
vn -0.943592 0.029802 -0.329768
vn 0.000000 1.000000 0.000002
vn -0.657655 0.000000 -0.753319
vn -0.974839 0.000000 -0.222911
vn -0.974406 0.029801 -0.222812
vn -0.657363 0.029802 -0.752984
vn -0.919708 0.000000 0.392603
vn -0.919300 0.029801 0.392429
vn -0.513223 0.000000 0.858255
vn -0.512995 0.029800 0.857874
vn 0.089262 0.000000 0.996008
vn 0.089223 0.029802 0.995566
vn 0.657638 0.000000 0.753334
vn 0.657346 0.029799 0.752999
vn 0.974846 0.000000 0.222881
vn 0.974413 0.029801 0.222782
vn 0.919699 0.000000 -0.392624
vn 0.919291 0.029802 -0.392449
vn 0.513283 0.000000 -0.858219
vn 0.513055 0.029801 -0.857838
vn -0.089337 0.000000 -0.996002
vn -0.089297 0.029802 -0.995559
vn 0.000000 1.000000 -0.000000
vn 0.625964 0.000000 -0.779852
vn 0.048041 0.000000 -0.998845
vn 0.048020 0.029803 -0.998402
vn 0.625686 0.029804 -0.779506
vn -0.548184 0.000000 -0.836358
vn -0.547940 0.029801 -0.835987
vn -0.935117 0.000000 -0.354340
vn -0.934701 0.029800 -0.354183
vn -0.964798 0.000000 0.262994
vn -0.964369 0.029802 0.262877
vn -0.625972 0.000000 0.779846
vn -0.625694 0.029799 0.779499
vn -0.048008 0.000000 0.998847
vn -0.047987 0.029800 0.998403
vn 0.548196 0.000000 0.836350
vn 0.547953 0.029801 0.835978
vn 0.935097 0.000000 0.354391
vn 0.934682 0.029803 0.354234
vn 0.964777 0.000000 -0.263068
vn 0.964349 0.029802 -0.262952
vn 0.000000 1.000000 0.000002
vn 0.970591 0.000000 0.240736
vn 0.926730 0.000000 -0.375728
vn 0.926318 0.029800 -0.375561
vn 0.970159 0.029803 0.240629
vn 0.528955 0.000000 -0.848650
vn 0.528720 0.029801 -0.848273
vn -0.070983 0.000000 -0.997478
vn -0.070951 0.029800 -0.997034
vn -0.643720 0.000000 -0.765261
vn -0.643434 0.029802 -0.764921
vn -0.970580 0.000000 -0.240777
vn -0.970149 0.029799 -0.240670
vn -0.926711 0.000000 0.375775
vn -0.926300 0.029801 0.375608
vn -0.528917 0.000000 0.848674
vn -0.528682 0.029803 0.848297
vn 0.070923 0.000000 0.997482
vn 0.070892 0.029802 0.997039
vn 0.643782 0.000000 0.765209
vn 0.643496 0.029802 0.764869
vn 0.000000 1.000000 0.000001
s 1
g polySurface28
usemtl initialShadingGroup
f 1/1/1 2/2/2 12/3/3 11/4/4
f 2/2/2 3/5/5 13/6/6 12/3/3
f 3/5/5 4/7/7 14/8/8 13/6/6
f 4/7/7 5/9/9 15/10/10 14/8/8
f 5/9/9 6/11/11 16/12/12 15/10/10
f 6/11/11 7/13/13 17/14/14 16/12/12
f 7/13/13 8/15/15 18/16/16 17/14/14
f 8/15/15 9/17/17 19/18/18 18/16/16
f 9/19/17 10/20/19 20/21/20 19/22/18
f 10/20/19 1/1/1 11/4/4 20/21/20
f 11/4/4 12/3/3 21/23/21
f 12/3/3 13/6/6 21/23/21
f 13/6/6 14/8/8 21/23/21
f 14/8/8 15/10/10 21/23/21
f 15/10/10 16/12/12 21/23/21
f 16/12/12 17/14/14 21/23/21
f 17/14/14 18/16/16 21/23/21
f 18/16/16 19/18/18 21/23/21
f 19/22/18 20/21/20 21/23/21
f 20/21/20 11/4/4 21/23/21
s 2
f 22/24/22 23/25/23 33/26/24 32/27/25
f 23/25/23 24/28/26 34/29/27 33/26/24
f 24/28/26 25/30/28 35/31/29 34/29/27
f 25/30/28 26/32/30 36/33/31 35/31/29
f 26/32/30 27/34/32 37/35/33 36/33/31
f 27/34/32 28/36/34 38/37/35 37/35/33
f 28/36/34 29/38/36 39/39/37 38/37/35
f 29/38/36 30/40/38 40/41/39 39/39/37
f 30/42/38 31/43/40 41/44/41 40/45/39
f 31/43/40 22/24/22 32/27/25 41/44/41
f 32/27/25 33/26/24 42/46/42
f 33/26/24 34/29/27 42/46/42
f 34/29/27 35/31/29 42/46/42
f 35/31/29 36/33/31 42/46/42
f 36/33/31 37/35/33 42/46/42
f 37/35/33 38/37/35 42/46/42
f 38/37/35 39/39/37 42/46/42
f 39/39/37 40/41/39 42/46/42
f 40/45/39 41/44/41 42/46/42
f 41/44/41 32/27/25 42/46/42
s 3
f 43/47/43 44/48/44 54/49/45 53/50/46
f 44/48/44 45/51/47 55/52/48 54/49/45
f 45/51/47 46/53/49 56/54/50 55/52/48
f 46/53/49 47/55/51 57/56/52 56/54/50
f 47/55/51 48/57/53 58/58/54 57/56/52
f 48/57/53 49/59/55 59/60/56 58/58/54
f 49/59/55 50/61/57 60/62/58 59/60/56
f 50/61/57 51/63/59 61/64/60 60/62/58
f 51/65/59 52/66/61 62/67/62 61/68/60
f 52/66/61 43/47/43 53/50/46 62/67/62
f 53/50/46 54/49/45 63/69/63
f 54/49/45 55/52/48 63/69/63
f 55/52/48 56/54/50 63/69/63
f 56/54/50 57/56/52 63/69/63
f 57/56/52 58/58/54 63/69/63
f 58/58/54 59/60/56 63/69/63
f 59/60/56 60/62/58 63/69/63
f 60/62/58 61/64/60 63/69/63
f 61/68/60 62/67/62 63/69/63
f 62/67/62 53/50/46 63/69/63
s 4
f 64/70/64 65/71/65 75/72/66 74/73/67
f 65/71/65 66/74/68 76/75/69 75/72/66
f 66/74/68 67/76/70 77/77/71 76/75/69
f 67/76/70 68/78/72 78/79/73 77/77/71
f 68/78/72 69/80/74 79/81/75 78/79/73
f 69/80/74 70/82/76 80/83/77 79/81/75
f 70/82/76 71/84/78 81/85/79 80/83/77
f 71/84/78 72/86/80 82/87/81 81/85/79
f 72/88/80 73/89/82 83/90/83 82/91/81
f 73/89/82 64/70/64 74/73/67 83/90/83
f 74/73/67 75/72/66 84/92/84
f 75/72/66 76/75/69 84/92/84
f 76/75/69 77/77/71 84/92/84
f 77/77/71 78/79/73 84/92/84
f 78/79/73 79/81/75 84/92/84
f 79/81/75 80/83/77 84/92/84
f 80/83/77 81/85/79 84/92/84
f 81/85/79 82/87/81 84/92/84
f 82/91/81 83/90/83 84/92/84
f 83/90/83 74/73/67 84/92/84
s 5
f 85/93/85 86/94/86 96/95/87 95/96/88
f 86/94/86 87/97/89 97/98/90 96/95/87
f 87/97/89 88/99/91 98/100/92 97/98/90
f 88/99/91 89/101/93 99/102/94 98/100/92
f 89/101/93 90/103/95 100/104/96 99/102/94
f 90/103/95 91/105/97 101/106/98 100/104/96
f 91/105/97 92/107/99 102/108/100 101/106/98
f 92/107/99 93/109/101 103/110/102 102/108/100
f 93/111/101 94/112/103 104/113/104 103/114/102
f 94/112/103 85/93/85 95/96/88 104/113/104
f 95/96/88 96/95/87 105/115/105
f 96/95/87 97/98/90 105/115/105
f 97/98/90 98/100/92 105/115/105
f 98/100/92 99/102/94 105/115/105
f 99/102/94 100/104/96 105/115/105
f 100/104/96 101/106/98 105/115/105
f 101/106/98 102/108/100 105/115/105
f 102/108/100 103/110/102 105/115/105
f 103/114/102 104/113/104 105/115/105
f 104/113/104 95/96/88 105/115/105
